FILE "stream.wav" WAVE
  TRACK 01 AUDIO
    INDEX 01 00:00:00
  TRACK 02 AUDIO
    INDEX 01 00:00:01
  TRACK 03 AUDIO
    INDEX 01 00:00:02
  TRACK 04 AUDIO
    INDEX 01 00:00:03
  TRACK 05 AUDIO
    INDEX 01 00:00:04
  TRACK 06 AUDIO
    INDEX 01 00:00:05
  TRACK 07 AUDIO
    INDEX 01 00:00:06
  TRACK 08 AUDIO
    INDEX 01 00:00:07
  TRACK 09 AUDIO
    INDEX 01 00:00:08
  TRACK 10 AUDIO
    INDEX 01 00:00:09
  TRACK 11 AUDIO
    INDEX 01 00:00:10
  TRACK 12 AUDIO
    INDEX 01 00:00:11
  TRACK 13 AUDIO
    INDEX 01 00:00:12
  TRACK 14 AUDIO
    INDEX 01 00:00:13
  TRACK 15 AUDIO
    INDEX 01 00:00:14
  TRACK 16 AUDIO
    INDEX 01 00:00:15
  TRACK 17 AUDIO
    INDEX 01 00:00:16
  TRACK 18 AUDIO
    INDEX 01 00:00:17
  TRACK 19 AUDIO
    INDEX 01 00:00:18
  TRACK 20 AUDIO
    INDEX 01 00:00:19
  TRACK 21 AUDIO
    INDEX 01 00:00:20
  TRACK 22 AUDIO
    INDEX 01 00:00:21
  TRACK 23 AUDIO
    INDEX 01 00:00:22
  TRACK 24 AUDIO
    INDEX 01 00:00:23
  TRACK 25 AUDIO
    INDEX 01 00:00:24
  TRACK 26 AUDIO
    INDEX 01 00:00:25
  TRACK 27 AUDIO
    INDEX 01 00:00:26
  TRACK 28 AUDIO
    INDEX 01 00:00:27
  TRACK 29 AUDIO
    INDEX 01 00:00:28
  TRACK 30 AUDIO
    INDEX 01 00:00:29
  TRACK 31 AUDIO
    INDEX 01 00:00:30
  TRACK 32 AUDIO
    INDEX 01 00:00:31
  TRACK 33 AUDIO
    INDEX 01 00:00:32
  TRACK 34 AUDIO
    INDEX 01 00:00:33
  TRACK 35 AUDIO
    INDEX 01 00:00:34
  TRACK 36 AUDIO
    INDEX 01 00:00:35
  TRACK 37 AUDIO
    INDEX 01 00:00:36
  TRACK 38 AUDIO
    INDEX 01 00:00:37
  TRACK 39 AUDIO
    INDEX 01 00:00:38
  TRACK 40 AUDIO
    INDEX 01 00:00:39
  TRACK 41 AUDIO
    INDEX 01 00:00:40
  TRACK 42 AUDIO
    INDEX 01 00:00:41
  TRACK 43 AUDIO
    INDEX 01 00:00:42
  TRACK 44 AUDIO
    INDEX 01 00:00:43
  TRACK 45 AUDIO
    INDEX 01 00:00:44
  TRACK 46 AUDIO
    INDEX 01 00:00:45
  TRACK 47 AUDIO
    INDEX 01 00:00:46
  TRACK 48 AUDIO
    INDEX 01 00:00:47
  TRACK 49 AUDIO
    INDEX 01 00:00:48
  TRACK 50 AUDIO
    INDEX 01 00:00:49
  TRACK 51 AUDIO
    INDEX 01 00:00:50
  TRACK 52 AUDIO
    INDEX 01 00:00:51
  TRACK 53 AUDIO
    INDEX 01 00:00:52
  TRACK 54 AUDIO
    INDEX 01 00:00:53
  TRACK 55 AUDIO
    INDEX 01 00:00:54
  TRACK 56 AUDIO
    INDEX 01 00:00:55
  TRACK 57 AUDIO
    INDEX 01 00:00:56
  TRACK 58 AUDIO
    INDEX 01 00:00:57
  TRACK 59 AUDIO
    INDEX 01 00:00:58
  TRACK 60 AUDIO
    INDEX 01 00:00:59
  TRACK 61 AUDIO
    INDEX 01 00:00:60
  TRACK 62 AUDIO
    INDEX 01 00:00:61
  TRACK 63 AUDIO
    INDEX 01 00:00:62
  TRACK 64 AUDIO
    INDEX 01 00:00:63
  TRACK 65 AUDIO
    INDEX 01 00:00:64
  TRACK 66 AUDIO
    INDEX 01 00:00:65
  TRACK 67 AUDIO
    INDEX 01 00:00:66
  TRACK 68 AUDIO
    INDEX 01 00:00:67
  TRACK 69 AUDIO
    INDEX 01 00:00:68
  TRACK 70 AUDIO
    INDEX 01 00:00:69
  TRACK 71 AUDIO
    INDEX 01 00:00:70
  TRACK 72 AUDIO
    INDEX 01 00:00:71
  TRACK 73 AUDIO
    INDEX 01 00:00:72
  TRACK 74 AUDIO
    INDEX 01 00:00:73
  TRACK 75 AUDIO
    INDEX 01 00:00:74
  TRACK 76 AUDIO
    INDEX 01 00:01:00
  TRACK 77 AUDIO
    INDEX 01 00:01:01
  TRACK 78 AUDIO
    INDEX 01 00:01:02
  TRACK 79 AUDIO
    INDEX 01 00:01:03
  TRACK 80 AUDIO
    INDEX 01 00:01:04
  TRACK 81 AUDIO
    INDEX 01 00:01:05
  TRACK 82 AUDIO
    INDEX 01 00:01:06
  TRACK 83 AUDIO
    INDEX 01 00:01:07
  TRACK 84 AUDIO
    INDEX 01 00:01:08
  TRACK 85 AUDIO
    INDEX 01 00:01:09
  TRACK 86 AUDIO
    INDEX 01 00:01:10
  TRACK 87 AUDIO
    INDEX 01 00:01:11
  TRACK 88 AUDIO
    INDEX 01 00:01:12
  TRACK 89 AUDIO
    INDEX 01 00:01:13
  TRACK 90 AUDIO
    INDEX 01 00:01:14
  TRACK 91 AUDIO
    INDEX 01 00:01:15
  TRACK 92 AUDIO
    INDEX 01 00:01:16
  TRACK 93 AUDIO
    INDEX 01 00:01:17
  TRACK 94 AUDIO
    INDEX 01 00:01:18
  TRACK 95 AUDIO
    INDEX 01 00:01:19
  TRACK 96 AUDIO
    INDEX 01 00:01:20
  TRACK 97 AUDIO
    INDEX 01 00:01:21
  TRACK 98 AUDIO
    INDEX 01 00:01:22
  TRACK 99 AUDIO
    INDEX 01 00:01:23
